<svg width="456" height="264" viewBox="0 0 456 264" fill="none" xmlns="http://www.w3.org/2000/svg">
<path d="M61.4203 263.862C61.4169 263.867 61.4114 263.869 61.4059 263.869C24.3266 262.573 19.2863 210.699 13.416 179.405C9.13328 156.525 -2.63896 97.4407 0.560102 77.4639C6.5354 40.1612 52.224 37.0388 80.3034 32.0655C156.163 18.6327 233.354 11.3863 309.94 5.7327C338.164 3.65262 413.26 -6.93156 435.988 7.49977C449.405 16.022 453.959 35.138 454.633 50.9032C456.521 95.4357 451.59 150.541 448.883 195.444C448.199 206.87 450.173 213.476 446.734 225.817C438.61 254.958 418.851 258.174 393.952 259.332C359.433 260.926 322.016 258.526 286.943 258.738C242.624 259.002 198.287 259.346 153.968 260.343C153.968 260.343 116.832 263.495 101.715 262.019L88.5937 261.664C79.8072 261.64 70.0778 264.151 61.4344 263.856C61.4289 263.855 61.4236 263.858 61.4203 263.862V263.862Z" fill="white"/>
</svg>
