<?xml version="1.0" encoding="UTF-8"?>
<svg id="Layer_2" data-name="Layer 2" xmlns="http://www.w3.org/2000/svg" viewBox="0 0 196.61 286.47">
  <defs>
    <style>
      .cls-1 {
        fill: #cdc6af;
      }
    </style>
  </defs>
  <g id="Layer_1-2" data-name="Layer 1">
    <path class="cls-1" d="M196.25,238.9c-3.35,28.63-28.73,41.81-54.78,45.15-16.5,2.11-34.29,2.75-50.89,2.29-35.49-.98-84-2.94-90.23-47.43C-.12,184.99-.12,130.97.35,77.06c1.07-11.38,7.52-21.68,15.89-29.14,3.77-3.36,8.85-5.43,10.64-10.47.39-1.08,1.07-3.8.72-4.82-.08-.22-2.8-2.16-3.45-3.03-.78-1.04-1.39-2.22-1.54-3.53-.49-4.12-.41-13.49-.05-17.71.35-4.07,3.93-6.51,8.19-8.07l-1.64,5.3c-.07.03-.12.07-.18.12-.25.15-.45.31-.6.47-.04.04-.08.08-.11.12-.07.08-.12.16-.16.24,0,0,0,0,0,0-.09.17-.11.34-.09.5l-.89,5.12v13.37c0,1.52,2.71,3.14,4.79,4.14v4.73c-.34,1.27-.41,2.61-.77,3.88-1.97,6.85-6.95,8.52-11.75,12.73-8.13,7.13-14.08,16.97-14.8,27.98v158.77c4.99,39.63,47.92,43.01,79.81,44.04,19.73.64,40.06.37,59.62-2.58,23.22-3.5,46.06-16.63,48.05-42.3V79.58c-.66-11.52-6.59-21.12-15.07-28.56-3.06-2.69-6.61-4.43-9.15-7.74-2.01-2.63-3.09-5.56-3.39-8.86v-4.53c1.4-.6,2.69-1.34,3.53-2.22.3-.31,1.26-1.81,1.26-2.12v-13.37l-1.17-5.19v-.04c0-.1-.03-.22-.09-.33l-.14-.62-.87-.33h-.03c-.1-.07-.22-.14-.33-.2-.07-.03-.13-.07-.2-.1l-2.23-5.38c4.56,1.4,9.01,3.69,9.52,7.56.49,3.73.46,14.76.03,18.55-.33,2.98-2.71,4.95-4.92,6.6-.39,8.48,7.45,11.44,12.66,16.33,7.86,7.37,13.64,17.15,14.74,28.05.54,53.89.48,107.9.03,161.8Z"/>
  </g>
</svg>